0
SECTION
2
HEADER
9
$ACADVER
1
AC1009
0
ENDSEC
0
SECTION
2
ENTITIES
  0
POLYLINE
  8
0
 66
1
 70
1
  0
VERTEX
  8
0
 10
748666.4225
 20
8930174.970001
 30
0
  0
VERTEX
  8
0
 10
748666.0625
 20
8930183.25
 30
0
  0
VERTEX
  8
0
 10
748666.0725
 20
8930188.889999
 30
0
  0
VERTEX
  8
0
 10
748666.2525
 20
8930194.240001
 30
0
  0
VERTEX
  8
0
 10
748666.5125
 20
8930199.490001
 30
0
  0
VERTEX
  8
0
 10
748666.523319
 20
8930199.572176
 30
0
  0
VERTEX
  8
0
 10
748666.555037
 20
8930199.648751
 30
0
  0
VERTEX
  8
0
 10
748666.605494
 20
8930199.714508
 30
0
  0
VERTEX
  8
0
 10
748666.67125
 20
8930199.764964
 30
0
  0
VERTEX
  8
0
 10
748666.747825
 20
8930199.796683
 30
0
  0
VERTEX
  8
0
 10
748666.83
 20
8930199.807501
 30
0
  0
VERTEX
  8
0
 10
748666.912175
 20
8930199.796683
 30
0
  0
VERTEX
  8
0
 10
748666.98875
 20
8930199.764964
 30
0
  0
VERTEX
  8
0
 10
748667.054506
 20
8930199.714508
 30
0
  0
VERTEX
  8
0
 10
748667.104963
 20
8930199.648751
 30
0
  0
VERTEX
  8
0
 10
748666.605494
 20
8930199.265495
 30
0
  0
VERTEX
  8
0
 10
748667.1475
 20
8930199.490001
 30
0
  0
VERTEX
  8
0
 10
748667.136681
 20
8930199.572176
 30
0
  0
VERTEX
  8
0
 10
748672.77125
 20
8930199.844962
 30
0
  0
VERTEX
  8
0
 10
748672.847825
 20
8930199.876681
 30
0
  0
VERTEX
  8
0
 10
748672.93
 20
8930199.887499
 30
0
  0
VERTEX
  8
0
 10
748673.012175
 20
8930199.876681
 30
0
  0
VERTEX
  8
0
 10
748673.08875
 20
8930199.844962
 30
0
  0
VERTEX
  8
0
 10
748673.154507
 20
8930199.794506
 30
0
  0
VERTEX
  8
0
 10
748673.204963
 20
8930199.728749
 30
0
  0
VERTEX
  8
0
 10
748672.705494
 20
8930199.345493
 30
0
  0
VERTEX
  8
0
 10
748673.236682
 20
8930199.652174
 30
0
  0
VERTEX
  8
0
 10
748677.50125
 20
8930198.724963
 30
0
  0
VERTEX
  8
0
 10
748677.577825
 20
8930198.756682
 30
0
  0
VERTEX
  8
0
 10
748677.66
 20
8930198.7675
 30
0
  0
VERTEX
  8
0
 10
748677.742175
 20
8930198.756682
 30
0
  0
VERTEX
  8
0
 10
748677.81875
 20
8930198.724963
 30
0
  0
VERTEX
  8
0
 10
748677.884506
 20
8930198.674507
 30
0
  0
VERTEX
  8
0
 10
748677.934963
 20
8930198.60875
 30
0
  0
VERTEX
  8
0
 10
748735.795039
 20
8930232.951246
 30
0
  0
VERTEX
  8
0
 10
748735.763321
 20
8930233.027821
 30
0
  0
VERTEX
  8
0
 10
748735.752502
 20
8930233.109996
 30
0
  0
VERTEX
  8
0
 10
748735.763321
 20
8930233.192171
 30
0
  0
VERTEX
  8
0
 10
748735.795039
 20
8930233.268746
 30
0
  0
VERTEX
  8
0
 10
748735.845496
 20
8930233.334503
 30
0
  0
VERTEX
  8
0
 10
748735.911252
 20
8930233.384959
 30
0
  0
VERTEX
  8
0
 10
748735.987827
 20
8930233.416678
 30
0
  0
VERTEX
  8
0
 10
748741.078823
 20
8930234.721678
 30
0
  0
VERTEX
  8
0
 10
748741.160998
 20
8930234.732497
 30
0
  0
VERTEX
  8
0
 10
748744.390002
 20
8930234.613501
 30
0
  0
VERTEX
  8
0
 10
748744.472177
 20
8930234.602682
 30
0
  0
VERTEX
  8
0
 10
748744.548752
 20
8930234.570964
 30
0
  0
VERTEX
  8
0
 10
748769.283246
 20
8930232.35596
 30
0
  0
VERTEX
  8
0
 10
748769.359821
 20
8930232.387678
 30
0
  0
VERTEX
  8
0
 10
748769.441996
 20
8930232.398497
 30
0
  0
VERTEX
  8
0
 10
748771.092997
 20
8930232.222502
 30
0
  0
VERTEX
  8
0
 10
748771.175172
 20
8930232.211684
 30
0
  0
VERTEX
  8
0
 10
748771.251747
 20
8930232.179965
 30
0
  0
VERTEX
  8
0
 10
748771.317504
 20
8930232.129509
 30
0
  0
VERTEX
  8
0
 10
748771.367961
 20
8930232.063752
 30
0
  0
VERTEX
  8
0
 10
748771.399679
 20
8930231.987177
 30
0
  0
VERTEX
  8
0
 10
748771.410497
 20
8930231.905002
 30
0
  0
VERTEX
  8
0
 10
748771.607504
 20
8930229.490001
 30
0
  0
VERTEX
  8
0
 10
748771.7675
 20
8930224.320003
 30
0
  0
VERTEX
  8
0
 10
748771.7675
 20
8930212.600002
 30
0
  0
VERTEX
  8
0
 10
748771.237501
 20
8930206.780002
 30
0
  0
VERTEX
  8
0
 10
748771.226682
 20
8930206.697827
 30
0
  0
VERTEX
  8
0
 10
748771.194964
 20
8930206.621252
 30
0
  0
VERTEX
  8
0
 10
748771.144507
 20
8930206.555496
 30
0
  0
VERTEX
  8
0
 10
748771.078751
 20
8930206.505039
 30
0
  0
VERTEX
  8
0
 10
748771.002176
 20
8930206.473321
 30
0
  0
VERTEX
  8
0
 10
748770.920001
 20
8930206.462502
 30
0
  0
VERTEX
  8
0
 10
748770.837826
 20
8930206.473321
 30
0
  0
VERTEX
  8
0
 10
748764.572176
 20
8930171.92668
 30
0
  0
VERTEX
  8
0
 10
748764.648751
 20
8930171.894962
 30
0
  0
VERTEX
  8
0
 10
748764.714507
 20
8930171.844505
 30
0
  0
VERTEX
  8
0
 10
748764.764964
 20
8930171.778748
 30
0
  0
VERTEX
  8
0
 10
748764.796682
 20
8930171.702174
 30
0
  0
VERTEX
  8
0
 10
748764.807501
 20
8930171.619998
 30
0
  0
VERTEX
  8
0
 10
748764.796682
 20
8930171.537823
 30
0
  0
VERTEX
  8
0
 10
748764.764964
 20
8930171.461248
 30
0
  0
VERTEX
  8
0
 10
748763.304965
 20
8930168.491251
 30
0
  0
VERTEX
  8
0
 10
748760.054965
 20
8930162.79125
 30
0
  0
VERTEX
  8
0
 10
748760.004508
 20
8930162.725494
 30
0
  0
VERTEX
  8
0
 10
748759.938752
 20
8930162.675037
 30
0
  0
VERTEX
  8
0
 10
748759.862177
 20
8930162.643319
 30
0
  0
VERTEX
  8
0
 10
748759.780002
 20
8930162.6325
 30
0
  0
VERTEX
  8
0
 10
748756.439998
 20
8930162.9725
 30
0
  0
VERTEX
  8
0
 10
748756.357823
 20
8930162.983319
 30
0
  0
VERTEX
  8
0
 10
748756.281248
 20
8930163.015037
 30
0
  0
VERTEX
  8
0
 10
748756.215491
 20
8930163.065494
 30
0
  0
VERTEX
  8
0
 10
748756.165034
 20
8930163.13125
 30
0
  0
VERTEX
  8
0
 10
748756.133316
 20
8930163.207825
 30
0
  0
VERTEX
  8
0
 10
748756.122498
 20
8930163.29
 30
0
  0
VERTEX
  8
0
 10
748756.133316
 20
8930163.372176
 30
0
  0
VERTEX
  8
0
 10
748752.877827
 20
8930164.243319
 30
0
  0
VERTEX
  8
0
 10
748752.801252
 20
8930164.275038
 30
0
  0
VERTEX
  8
0
 10
748752.735495
 20
8930164.325494
 30
0
  0
VERTEX
  8
0
 10
748752.685039
 20
8930164.391251
 30
0
  0
VERTEX
  8
0
 10
748752.65332
 20
8930164.467826
 30
0
  0
VERTEX
  8
0
 10
748752.642502
 20
8930164.550001
 30
0
  0
VERTEX
  8
0
 10
748752.65332
 20
8930164.632176
 30
0
  0
VERTEX
  8
0
 10
748694.086681
 20
8930174.077824
 30
0
  0
VERTEX
  8
0
 10
748694.054963
 20
8930174.001249
 30
0
  0
VERTEX
  8
0
 10
748694.004506
 20
8930173.935493
 30
0
  0
VERTEX
  8
0
 10
748693.93875
 20
8930173.885036
 30
0
  0
VERTEX
  8
0
 10
748693.862175
 20
8930173.853318
 30
0
  0
VERTEX
  8
0
 10
748693.78
 20
8930173.842499
 30
0
  0
VERTEX
  8
0
 10
748693.697825
 20
8930173.853318
 30
0
  0
VERTEX
  8
0
 10
748688.596681
 20
8930174.297826
 30
0
  0
VERTEX
  8
0
 10
748688.564963
 20
8930174.221251
 30
0
  0
VERTEX
  8
0
 10
748688.514506
 20
8930174.155494
 30
0
  0
VERTEX
  8
0
 10
748688.44875
 20
8930174.105038
 30
0
  0
VERTEX
  8
0
 10
748688.372175
 20
8930174.073319
 30
0
  0
VERTEX
  8
0
 10
748688.29
 20
8930174.062501
 30
0
  0
VERTEX
  8
0
 10
748688.207825
 20
8930174.073319
 30
0
  0
VERTEX
  8
0
 10
748683.096681
 20
8930174.447823
 30
0
  0
VERTEX
  8
0
 10
748683.064963
 20
8930174.371248
 30
0
  0
VERTEX
  8
0
 10
748683.014506
 20
8930174.305492
 30
0
  0
VERTEX
  8
0
 10
748682.94875
 20
8930174.255035
 30
0
  0
VERTEX
  8
0
 10
748682.872175
 20
8930174.223317
 30
0
  0
VERTEX
  8
0
 10
748682.79
 20
8930174.212498
 30
0
  0
VERTEX
  8
0
 10
748682.707825
 20
8930174.223317
 30
0
  0
VERTEX
  8
0
 10
748677.596681
 20
8930174.607823
 30
0
  0
VERTEX
  8
0
 10
748677.564963
 20
8930174.531248
 30
0
  0
VERTEX
  8
0
 10
748677.514506
 20
8930174.465492
 30
0
  0
VERTEX
  8
0
 10
748677.44875
 20
8930174.415035
 30
0
  0
VERTEX
  8
0
 10
748677.372175
 20
8930174.383317
 30
0
  0
VERTEX
  8
0
 10
748677.29
 20
8930174.372498
 30
0
  0
VERTEX
  8
0
 10
748677.207825
 20
8930174.383317
 30
0
  0
VERTEX
  8
0
 10
748672.096681
 20
8930174.757825
 30
0
  0
VERTEX
  8
0
 10
748672.064963
 20
8930174.68125
 30
0
  0
VERTEX
  8
0
 10
748672.014506
 20
8930174.615493
 30
0
  0
VERTEX
  8
0
 10
748671.94875
 20
8930174.565037
 30
0
  0
VERTEX
  8
0
 10
748671.872175
 20
8930174.533318
 30
0
  0
VERTEX
  8
0
 10
748671.79
 20
8930174.5225
 30
0
  0
VERTEX
  8
0
 10
748667.0575
 20
8930174.970001
 30
0
  0
VERTEX
  8
0
 10
748667.046681
 20
8930174.887826
 30
0
  0
VERTEX
  8
0
 10
748667.014963
 20
8930174.811251
 30
0
  0
VERTEX
  8
0
 10
748666.964506
 20
8930174.745494
 30
0
  0
VERTEX
  8
0
 10
748666.89875
 20
8930174.695038
 30
0
  0
VERTEX
  8
0
 10
748666.822175
 20
8930174.663319
 30
0
  0
VERTEX
  8
0
 10
748666.74
 20
8930174.652501
 30
0
  0
VERTEX
  8
0
 10
748666.657825
 20
8930174.663319
 30
0
  0
VERTEX
  8
0
 10
748666.58125
 20
8930174.695038
 30
0
  0
VERTEX
  8
0
 10
748666.515494
 20
8930174.745494
 30
0
  0
VERTEX
  8
0
 10
748666.465037
 20
8930174.811251
 30
0
  0
VERTEX
  8
0
 10
748666.433319
 20
8930174.887826
 30
0
  0
SEQEND
  8
0
0
ENDSEC
0
EOF
